<svg width="25" height="25" viewBox="0 0 25 25" fill="none" xmlns="http://www.w3.org/2000/svg">
<path d="M14.0156 7.35938C15.4531 8.04688 16.4375 9.15625 16.9688 10.6875C17.5 12.2188 17.4062 13.7031 16.6875 15.1406C16.125 16.3281 15.2344 17.2188 14.0156 17.8125L9.23438 20.1562L6.5625 17.4844C6.21875 17.1094 5.875 17.1094 5.53125 17.4844C5.375 17.6094 5.29688 17.7812 5.29688 18C5.29688 18.2188 5.375 18.3906 5.53125 18.5156L7.82812 20.8125L1.54688 23.9062C1.29688 24.0312 1.03125 24.0469 0.75 23.9531C0.46875 23.8594 0.265625 23.6719 0.140625 23.3906C0.015625 23.1094 0.015625 22.8125 0.140625 22.5L6.14062 10.1719L8.53125 12.5156C8.65625 12.6719 8.8125 12.75 9 12.75C9.21875 12.75 9.40625 12.6719 9.5625 12.5156C9.9375 12.1719 9.9375 11.8281 9.5625 11.4844L6.98438 8.85938C7.82812 7.85938 8.89062 7.21875 10.1719 6.9375C11.4844 6.625 12.7656 6.76562 14.0156 7.35938ZM18.3281 5.71875C19.2656 5.25 20.2656 5.14063 21.3281 5.39062C22.3906 5.64062 23.2969 6.21875 24.0469 7.125C23.0781 8.3125 21.9062 8.9375 20.5312 9C19.1562 9.0625 17.9531 8.5625 16.9219 7.5L16.5469 7.125C15.4844 6.09375 14.9844 4.89062 15.0469 3.51562C15.1094 2.14063 15.7344 0.96875 16.9219 0C17.8281 0.75 18.4062 1.65625 18.6562 2.71875C18.9062 3.78125 18.7969 4.78125 18.3281 5.71875Z" fill="white"/>
</svg>
