<svg width="154" height="42" viewBox="0 0 154 42" fill="none" xmlns="http://www.w3.org/2000/svg">
<path d="M50.832 15.64C50.832 17 50.352 18.176 49.392 19.168C48.432 20.144 47.032 20.848 45.192 21.28C46.184 21.552 46.936 22 47.448 22.624C47.96 23.232 48.216 23.936 48.216 24.736C48.216 26 47.816 27.096 47.016 28.024C46.232 28.952 45.08 29.672 43.56 30.184C42.04 30.68 40.208 30.928 38.064 30.928C37.264 30.928 36.624 30.904 36.144 30.856C36.128 31.304 35.936 31.64 35.568 31.864C35.2 32.088 34.728 32.2 34.152 32.2C33.576 32.2 33.176 32.072 32.952 31.816C32.744 31.56 32.656 31.184 32.688 30.688C32.832 28.448 33.112 26.104 33.528 23.656C33.944 21.192 34.472 18.816 35.112 16.528C35.224 16.128 35.448 15.848 35.784 15.688C36.12 15.528 36.56 15.448 37.104 15.448C38.08 15.448 38.568 15.72 38.568 16.264C38.568 16.488 38.52 16.744 38.424 17.032C38.008 18.28 37.592 19.976 37.176 22.12C36.76 24.248 36.464 26.28 36.288 28.216C37.056 28.28 37.68 28.312 38.16 28.312C40.4 28.312 42.04 27.992 43.08 27.352C44.136 26.696 44.664 25.864 44.664 24.856C44.664 24.152 44.36 23.56 43.752 23.08C43.16 22.6 42.16 22.336 40.752 22.288C40.432 22.272 40.208 22.192 40.08 22.048C39.952 21.904 39.888 21.672 39.888 21.352C39.888 20.888 39.984 20.512 40.176 20.224C40.368 19.936 40.72 19.784 41.232 19.768C42.368 19.736 43.392 19.568 44.304 19.264C45.232 18.96 45.96 18.536 46.488 17.992C47.016 17.432 47.28 16.784 47.28 16.048C47.28 15.12 46.824 14.392 45.912 13.864C45 13.32 43.6 13.048 41.712 13.048C40 13.048 38.344 13.272 36.744 13.72C35.144 14.152 33.784 14.704 32.664 15.376C32.152 15.68 31.72 15.832 31.368 15.832C31.08 15.832 30.856 15.736 30.696 15.544C30.552 15.336 30.48 15.08 30.48 14.776C30.48 14.376 30.56 14.032 30.72 13.744C30.896 13.456 31.304 13.128 31.944 12.76C33.288 11.992 34.864 11.392 36.672 10.96C38.48 10.528 40.328 10.312 42.216 10.312C45.112 10.312 47.272 10.8 48.696 11.776C50.12 12.752 50.832 14.04 50.832 15.64ZM60.8638 25.648C61.0718 25.648 61.2318 25.744 61.3438 25.936C61.4718 26.128 61.5358 26.392 61.5358 26.728C61.5358 27.368 61.3838 27.864 61.0798 28.216C60.4878 28.936 59.6478 29.6 58.5598 30.208C57.4878 30.816 56.3358 31.12 55.1038 31.12C53.4238 31.12 52.1198 30.664 51.1918 29.752C50.2638 28.84 49.7998 27.592 49.7998 26.008C49.7998 24.904 50.0318 23.88 50.4958 22.936C50.9598 21.976 51.5998 21.216 52.4158 20.656C53.2478 20.096 54.1838 19.816 55.2238 19.816C56.1518 19.816 56.8958 20.096 57.4558 20.656C58.0158 21.2 58.2958 21.944 58.2958 22.888C58.2958 23.992 57.8958 24.944 57.0958 25.744C56.3118 26.528 54.9758 27.152 53.0878 27.616C53.4878 28.352 54.2478 28.72 55.3678 28.72C56.0878 28.72 56.9038 28.472 57.8158 27.976C58.7438 27.464 59.5438 26.8 60.2158 25.984C60.4078 25.76 60.6238 25.648 60.8638 25.648ZM54.8158 22.168C54.2238 22.168 53.7198 22.512 53.3038 23.2C52.9038 23.888 52.7038 24.72 52.7038 25.696V25.744C53.6478 25.52 54.3918 25.184 54.9358 24.736C55.4798 24.288 55.7518 23.768 55.7518 23.176C55.7518 22.872 55.6638 22.632 55.4878 22.456C55.3278 22.264 55.1038 22.168 54.8158 22.168ZM64.0457 31.648C63.2137 31.648 62.5737 31.456 62.1257 31.072C61.6937 30.688 61.4777 30.256 61.4777 29.776C61.4777 29.36 61.6297 29 61.9337 28.696C62.2377 28.392 62.6857 28.24 63.2777 28.24C63.4857 28.24 63.7257 28.264 63.9977 28.312C64.2857 28.344 64.5017 28.368 64.6457 28.384C64.6297 27.968 64.5337 27.576 64.3577 27.208C64.1977 26.84 63.9897 26.488 63.7337 26.152C63.4777 25.8 63.2377 25.496 63.0137 25.24C62.5177 26.184 62.0217 26.968 61.5257 27.592C61.0457 28.216 60.5177 28.808 59.9417 29.368C59.6537 29.656 59.3497 29.8 59.0297 29.8C58.7737 29.8 58.5657 29.712 58.4057 29.536C58.2457 29.344 58.1657 29.112 58.1657 28.84C58.1657 28.52 58.2777 28.224 58.5017 27.952L58.8137 27.568C59.6937 26.48 60.3577 25.584 60.8057 24.88C61.0777 24.416 61.3977 23.8 61.7657 23.032C62.1337 22.248 62.4937 21.44 62.8457 20.608C63.1497 19.904 63.7817 19.552 64.7417 19.552C65.1897 19.552 65.5017 19.592 65.6777 19.672C65.8537 19.752 65.9417 19.88 65.9417 20.056C65.9417 20.152 65.9097 20.304 65.8457 20.512C65.7817 20.72 65.6937 20.928 65.5817 21.136C65.2937 21.712 65.1497 22.2 65.1497 22.6C65.1497 22.84 65.2297 23.104 65.3897 23.392C65.5657 23.68 65.8297 24.04 66.1817 24.472C66.6937 25.144 67.0777 25.72 67.3337 26.2C67.6057 26.664 67.7417 27.176 67.7417 27.736C67.7417 27.896 67.7257 28.12 67.6937 28.408C68.4777 28.104 69.3977 27.296 70.4537 25.984C70.6457 25.76 70.8617 25.648 71.1017 25.648C71.3097 25.648 71.4697 25.744 71.5817 25.936C71.7097 26.128 71.7737 26.392 71.7737 26.728C71.7737 27.336 71.6217 27.832 71.3177 28.216C70.5177 29.208 69.7497 29.888 69.0137 30.256C68.2937 30.608 67.3977 30.8 66.3257 30.832C65.6857 31.376 64.9257 31.648 64.0457 31.648ZM73.7839 22.096C73.7519 22.896 73.7359 23.52 73.7359 23.968C73.7359 25.12 73.7919 26.024 73.9039 26.68C74.0319 27.32 74.2319 27.784 74.5039 28.072C74.7919 28.344 75.1839 28.48 75.6799 28.48C75.9359 28.48 76.2399 28.4 76.5919 28.24C76.9439 28.08 77.2639 27.872 77.5519 27.616C77.7279 27.456 77.9039 27.376 78.0799 27.376C78.2719 27.376 78.4239 27.488 78.5359 27.712C78.6639 27.92 78.7279 28.176 78.7279 28.48C78.7279 28.784 78.6639 29.08 78.5359 29.368C78.4239 29.656 78.2479 29.896 78.0079 30.088C77.1759 30.776 76.2319 31.12 75.1759 31.12C73.6559 31.12 72.5439 30.488 71.8399 29.224C71.1359 27.944 70.7839 26.28 70.7839 24.232C70.7839 23.528 70.8079 22.816 70.8559 22.096H69.9199C69.4399 22.096 69.1119 22.008 68.9359 21.832C68.7759 21.656 68.6959 21.376 68.6959 20.992C68.6959 20.096 69.0559 19.648 69.7759 19.648H71.1439C71.4159 17.888 71.8319 16.28 72.3919 14.824C72.9519 13.368 73.6239 12.208 74.4079 11.344C75.2079 10.48 76.0639 10.048 76.9759 10.048C77.6479 10.048 78.1759 10.344 78.5599 10.936C78.9439 11.528 79.1359 12.272 79.1359 13.168C79.1359 15.648 78.0959 17.808 76.0159 19.648H78.7039C78.9599 19.648 79.1439 19.704 79.2559 19.816C79.3679 19.928 79.4239 20.136 79.4239 20.44C79.4239 21.544 78.5199 22.096 76.7119 22.096H73.7839ZM76.3279 12.352C76.0879 12.352 75.8159 12.656 75.5119 13.264C75.2239 13.856 74.9439 14.688 74.6719 15.76C74.4159 16.816 74.1999 17.992 74.0239 19.288C74.9679 18.472 75.6719 17.56 76.1359 16.552C76.6159 15.528 76.8559 14.6 76.8559 13.768C76.8559 12.824 76.6799 12.352 76.3279 12.352ZM105.77 15.64C105.77 17 105.29 18.176 104.33 19.168C103.37 20.144 101.97 20.848 100.13 21.28C101.122 21.552 101.874 22 102.386 22.624C102.898 23.232 103.154 23.936 103.154 24.736C103.154 26 102.754 27.096 101.954 28.024C101.17 28.952 100.018 29.672 98.4975 30.184C96.9775 30.68 95.1455 30.928 93.0015 30.928C92.2015 30.928 91.5615 30.904 91.0815 30.856C91.0655 31.304 90.8735 31.64 90.5055 31.864C90.1375 32.088 89.6655 32.2 89.0895 32.2C88.5135 32.2 88.1135 32.072 87.8895 31.816C87.6815 31.56 87.5935 31.184 87.6255 30.688C87.7695 28.448 88.0495 26.104 88.4655 23.656C88.8815 21.192 89.4095 18.816 90.0495 16.528C90.1615 16.128 90.3855 15.848 90.7215 15.688C91.0575 15.528 91.4975 15.448 92.0415 15.448C93.0175 15.448 93.5055 15.72 93.5055 16.264C93.5055 16.488 93.4575 16.744 93.3615 17.032C92.9455 18.28 92.5295 19.976 92.1135 22.12C91.6975 24.248 91.4015 26.28 91.2255 28.216C91.9935 28.28 92.6175 28.312 93.0975 28.312C95.3375 28.312 96.9775 27.992 98.0175 27.352C99.0735 26.696 99.6015 25.864 99.6015 24.856C99.6015 24.152 99.2975 23.56 98.6895 23.08C98.0975 22.6 97.0975 22.336 95.6895 22.288C95.3695 22.272 95.1455 22.192 95.0175 22.048C94.8895 21.904 94.8255 21.672 94.8255 21.352C94.8255 20.888 94.9215 20.512 95.1135 20.224C95.3055 19.936 95.6575 19.784 96.1695 19.768C97.3055 19.736 98.3295 19.568 99.2415 19.264C100.17 18.96 100.898 18.536 101.426 17.992C101.954 17.432 102.218 16.784 102.218 16.048C102.218 15.12 101.762 14.392 100.85 13.864C99.9375 13.32 98.5375 13.048 96.6495 13.048C94.9375 13.048 93.2815 13.272 91.6815 13.72C90.0815 14.152 88.7215 14.704 87.6015 15.376C87.0895 15.68 86.6575 15.832 86.3055 15.832C86.0175 15.832 85.7935 15.736 85.6335 15.544C85.4895 15.336 85.4175 15.08 85.4175 14.776C85.4175 14.376 85.4975 14.032 85.6575 13.744C85.8335 13.456 86.2415 13.128 86.8815 12.76C88.2255 11.992 89.8015 11.392 91.6095 10.96C93.4175 10.528 95.2655 10.312 97.1535 10.312C100.05 10.312 102.21 10.8 103.634 11.776C105.058 12.752 105.77 14.04 105.77 15.64ZM115.801 25.648C116.009 25.648 116.169 25.744 116.281 25.936C116.409 26.128 116.473 26.392 116.473 26.728C116.473 27.368 116.321 27.864 116.017 28.216C115.425 28.936 114.585 29.6 113.497 30.208C112.425 30.816 111.273 31.12 110.041 31.12C108.361 31.12 107.057 30.664 106.129 29.752C105.201 28.84 104.737 27.592 104.737 26.008C104.737 24.904 104.969 23.88 105.433 22.936C105.897 21.976 106.537 21.216 107.353 20.656C108.185 20.096 109.121 19.816 110.161 19.816C111.089 19.816 111.833 20.096 112.393 20.656C112.953 21.2 113.233 21.944 113.233 22.888C113.233 23.992 112.833 24.944 112.033 25.744C111.249 26.528 109.913 27.152 108.025 27.616C108.425 28.352 109.185 28.72 110.305 28.72C111.025 28.72 111.841 28.472 112.753 27.976C113.681 27.464 114.481 26.8 115.153 25.984C115.345 25.76 115.561 25.648 115.801 25.648ZM109.753 22.168C109.161 22.168 108.657 22.512 108.241 23.2C107.841 23.888 107.641 24.72 107.641 25.696V25.744C108.585 25.52 109.329 25.184 109.873 24.736C110.417 24.288 110.689 23.768 110.689 23.176C110.689 22.872 110.601 22.632 110.425 22.456C110.265 22.264 110.041 22.168 109.753 22.168ZM123.861 24.28C124.309 24.28 124.533 24.616 124.533 25.288C124.533 26.552 123.541 27.184 121.557 27.184C121.173 27.184 120.621 27.112 119.901 26.968C120.109 27.96 120.277 29.064 120.405 30.28C120.549 31.48 120.621 32.472 120.621 33.256C120.621 34.984 120.341 36.304 119.781 37.216C119.221 38.128 118.485 38.584 117.573 38.584C116.421 38.584 115.597 37.768 115.101 36.136C114.621 34.504 114.381 32.04 114.381 28.744C114.381 25.672 114.709 22.56 115.365 19.408C116.037 16.24 116.949 13.624 118.101 11.56C119.269 9.48 120.549 8.44 121.941 8.44C122.693 8.44 123.277 8.776 123.693 9.448C124.125 10.12 124.341 11.024 124.341 12.16C124.341 15.92 122.093 20.016 117.597 24.448C117.437 26.016 117.357 27.392 117.357 28.576C117.357 30.224 117.413 31.912 117.525 33.64C117.637 35.384 117.821 36.256 118.077 36.256C118.557 36.256 118.797 35.424 118.797 33.76C118.797 32.512 118.709 31.304 118.533 30.136C118.373 28.968 118.149 27.736 117.861 26.44C117.845 26.232 117.909 25.968 118.053 25.648C118.213 25.328 118.405 25.048 118.629 24.808C118.853 24.568 119.053 24.448 119.229 24.448C119.549 24.448 119.933 24.464 120.381 24.496C120.525 24.512 120.693 24.52 120.885 24.52C121.525 24.52 122.237 24.464 123.021 24.352C123.149 24.336 123.285 24.32 123.429 24.304C123.573 24.288 123.717 24.28 123.861 24.28ZM121.437 10.816C121.149 10.816 120.789 11.304 120.357 12.28C119.941 13.256 119.525 14.552 119.109 16.168C118.693 17.768 118.333 19.464 118.029 21.256C119.309 19.8 120.293 18.288 120.981 16.72C121.669 15.136 122.021 13.656 122.037 12.28C122.037 11.304 121.837 10.816 121.437 10.816ZM134.962 23.632C135.17 23.632 135.33 23.736 135.442 23.944C135.554 24.152 135.61 24.416 135.61 24.736C135.61 25.504 135.378 25.96 134.914 26.104C133.954 26.44 132.898 26.632 131.746 26.68C131.442 28.024 130.842 29.104 129.946 29.92C129.05 30.72 128.034 31.12 126.898 31.12C125.938 31.12 125.114 30.888 124.426 30.424C123.754 29.96 123.242 29.344 122.89 28.576C122.538 27.808 122.362 26.976 122.362 26.08C122.362 24.864 122.594 23.784 123.058 22.84C123.522 21.88 124.162 21.136 124.978 20.608C125.794 20.064 126.698 19.792 127.69 19.792C128.906 19.792 129.882 20.216 130.618 21.064C131.37 21.896 131.81 22.928 131.938 24.16C132.69 24.112 133.586 23.952 134.626 23.68C134.754 23.648 134.866 23.632 134.962 23.632ZM127.09 28.576C127.602 28.576 128.042 28.368 128.41 27.952C128.794 27.536 129.05 26.936 129.178 26.152C128.682 25.816 128.298 25.376 128.026 24.832C127.77 24.288 127.642 23.712 127.642 23.104C127.642 22.848 127.666 22.592 127.714 22.336H127.594C126.954 22.336 126.418 22.648 125.986 23.272C125.57 23.88 125.362 24.744 125.362 25.864C125.362 26.744 125.53 27.416 125.866 27.88C126.218 28.344 126.626 28.576 127.09 28.576ZM135.254 31.12C134.646 31.12 134.214 30.8 133.958 30.16C133.718 29.52 133.598 28.496 133.598 27.088C133.598 25.008 133.894 23.032 134.486 21.16C134.63 20.696 134.862 20.36 135.182 20.152C135.518 19.928 135.982 19.816 136.574 19.816C136.894 19.816 137.118 19.856 137.246 19.936C137.374 20.016 137.438 20.168 137.438 20.392C137.438 20.648 137.318 21.224 137.078 22.12C136.918 22.76 136.79 23.32 136.694 23.8C136.598 24.28 136.518 24.872 136.454 25.576C136.982 24.2 137.574 23.08 138.23 22.216C138.886 21.352 139.526 20.736 140.15 20.368C140.79 20 141.374 19.816 141.902 19.816C142.942 19.816 143.462 20.336 143.462 21.376C143.462 21.584 143.39 22.088 143.246 22.888C143.118 23.528 143.054 23.928 143.054 24.088C143.054 24.648 143.254 24.928 143.654 24.928C144.102 24.928 144.678 24.576 145.382 23.872C145.59 23.664 145.806 23.56 146.03 23.56C146.238 23.56 146.398 23.656 146.51 23.848C146.638 24.024 146.702 24.264 146.702 24.568C146.702 25.16 146.542 25.624 146.222 25.96C145.774 26.424 145.246 26.824 144.638 27.16C144.046 27.48 143.414 27.64 142.742 27.64C141.894 27.64 141.246 27.424 140.798 26.992C140.366 26.56 140.15 25.976 140.15 25.24C140.15 25 140.174 24.76 140.222 24.52C140.254 24.2 140.27 23.984 140.27 23.872C140.27 23.616 140.182 23.488 140.006 23.488C139.766 23.488 139.446 23.76 139.046 24.304C138.662 24.832 138.278 25.536 137.894 26.416C137.51 27.296 137.198 28.224 136.958 29.2C136.782 29.952 136.574 30.464 136.334 30.736C136.11 30.992 135.75 31.12 135.254 31.12ZM153.064 26.368C153.272 26.368 153.432 26.464 153.544 26.656C153.672 26.848 153.736 27.112 153.736 27.448C153.736 28.024 153.6 28.52 153.328 28.936C152.88 29.624 152.288 30.16 151.552 30.544C150.832 30.928 149.968 31.12 148.96 31.12C147.424 31.12 146.232 30.664 145.384 29.752C144.536 28.824 144.112 27.576 144.112 26.008C144.112 24.904 144.344 23.88 144.808 22.936C145.272 21.976 145.912 21.216 146.728 20.656C147.56 20.096 148.496 19.816 149.536 19.816C150.464 19.816 151.208 20.096 151.768 20.656C152.328 21.2 152.608 21.944 152.608 22.888C152.608 23.992 152.208 24.944 151.408 25.744C150.624 26.528 149.28 27.152 147.376 27.616C147.76 28.352 148.408 28.72 149.32 28.72C149.976 28.72 150.512 28.568 150.928 28.264C151.36 27.96 151.856 27.448 152.416 26.728C152.608 26.488 152.824 26.368 153.064 26.368ZM149.128 22.168C148.536 22.168 148.032 22.512 147.616 23.2C147.216 23.888 147.016 24.72 147.016 25.696V25.744C147.96 25.52 148.704 25.184 149.248 24.736C149.792 24.288 150.064 23.768 150.064 23.176C150.064 22.872 149.976 22.632 149.8 22.456C149.64 22.264 149.416 22.168 149.128 22.168Z" fill="white"/>
<path d="M14.0156 16.3594C15.4531 17.0469 16.4375 18.1562 16.9688 19.6875C17.5 21.2188 17.4062 22.7031 16.6875 24.1406C16.125 25.3281 15.2344 26.2188 14.0156 26.8125L9.23438 29.1562L6.5625 26.4844C6.21875 26.1094 5.875 26.1094 5.53125 26.4844C5.375 26.6094 5.29688 26.7812 5.29688 27C5.29688 27.2188 5.375 27.3906 5.53125 27.5156L7.82812 29.8125L1.54688 32.9062C1.29688 33.0312 1.03125 33.0469 0.75 32.9531C0.46875 32.8594 0.265625 32.6719 0.140625 32.3906C0.015625 32.1094 0.015625 31.8125 0.140625 31.5L6.14062 19.1719L8.53125 21.5156C8.65625 21.6719 8.8125 21.75 9 21.75C9.21875 21.75 9.40625 21.6719 9.5625 21.5156C9.9375 21.1719 9.9375 20.8281 9.5625 20.4844L6.98438 17.8594C7.82812 16.8594 8.89062 16.2188 10.1719 15.9375C11.4844 15.625 12.7656 15.7656 14.0156 16.3594ZM18.3281 14.7188C19.2656 14.25 20.2656 14.1406 21.3281 14.3906C22.3906 14.6406 23.2969 15.2188 24.0469 16.125C23.0781 17.3125 21.9062 17.9375 20.5312 18C19.1562 18.0625 17.9531 17.5625 16.9219 16.5L16.5469 16.125C15.4844 15.0938 14.9844 13.8906 15.0469 12.5156C15.1094 11.1406 15.7344 9.96875 16.9219 9C17.8281 9.75 18.4062 10.6562 18.6562 11.7188C18.9062 12.7812 18.7969 13.7812 18.3281 14.7188Z" fill="white"/>
</svg>
