<svg width="124" height="31" viewBox="0 0 124 31" fill="none" xmlns="http://www.w3.org/2000/svg">
<path d="M20.832 7.64C20.832 9 20.352 10.176 19.392 11.168C18.432 12.144 17.032 12.848 15.192 13.28C16.184 13.552 16.936 14 17.448 14.624C17.96 15.232 18.216 15.936 18.216 16.736C18.216 18 17.816 19.096 17.016 20.024C16.232 20.952 15.08 21.672 13.56 22.184C12.04 22.68 10.208 22.928 8.064 22.928C7.264 22.928 6.624 22.904 6.144 22.856C6.128 23.304 5.936 23.64 5.568 23.864C5.2 24.088 4.728 24.2 4.152 24.2C3.576 24.2 3.176 24.072 2.952 23.816C2.744 23.56 2.656 23.184 2.688 22.688C2.832 20.448 3.112 18.104 3.528 15.656C3.944 13.192 4.472 10.816 5.112 8.528C5.224 8.128 5.448 7.848 5.784 7.688C6.12 7.528 6.56 7.448 7.104 7.448C8.08 7.448 8.568 7.72 8.568 8.264C8.568 8.488 8.52 8.744 8.424 9.032C8.008 10.28 7.592 11.976 7.176 14.12C6.76 16.248 6.464 18.28 6.288 20.216C7.056 20.28 7.68 20.312 8.16 20.312C10.4 20.312 12.04 19.992 13.08 19.352C14.136 18.696 14.664 17.864 14.664 16.856C14.664 16.152 14.36 15.56 13.752 15.08C13.16 14.6 12.16 14.336 10.752 14.288C10.432 14.272 10.208 14.192 10.08 14.048C9.952 13.904 9.888 13.672 9.888 13.352C9.888 12.888 9.984 12.512 10.176 12.224C10.368 11.936 10.72 11.784 11.232 11.768C12.368 11.736 13.392 11.568 14.304 11.264C15.232 10.96 15.96 10.536 16.488 9.992C17.016 9.432 17.28 8.784 17.28 8.048C17.28 7.12 16.824 6.392 15.912 5.864C15 5.32 13.6 5.048 11.712 5.048C10 5.048 8.344 5.272 6.744 5.72C5.144 6.152 3.784 6.704 2.664 7.376C2.152 7.68 1.72 7.832 1.368 7.832C1.08 7.832 0.856 7.736 0.696 7.544C0.552 7.336 0.48 7.08 0.48 6.776C0.48 6.376 0.56 6.032 0.72 5.744C0.896 5.456 1.304 5.128 1.944 4.76C3.288 3.992 4.864 3.392 6.672 2.96C8.48 2.528 10.328 2.312 12.216 2.312C15.112 2.312 17.272 2.8 18.696 3.776C20.12 4.752 20.832 6.04 20.832 7.64ZM30.8638 17.648C31.0718 17.648 31.2318 17.744 31.3438 17.936C31.4718 18.128 31.5358 18.392 31.5358 18.728C31.5358 19.368 31.3838 19.864 31.0798 20.216C30.4878 20.936 29.6478 21.6 28.5598 22.208C27.4878 22.816 26.3358 23.12 25.1038 23.12C23.4238 23.12 22.1198 22.664 21.1918 21.752C20.2638 20.84 19.7998 19.592 19.7998 18.008C19.7998 16.904 20.0318 15.88 20.4958 14.936C20.9598 13.976 21.5998 13.216 22.4158 12.656C23.2478 12.096 24.1838 11.816 25.2238 11.816C26.1518 11.816 26.8958 12.096 27.4558 12.656C28.0158 13.2 28.2958 13.944 28.2958 14.888C28.2958 15.992 27.8958 16.944 27.0958 17.744C26.3118 18.528 24.9758 19.152 23.0878 19.616C23.4878 20.352 24.2478 20.72 25.3678 20.72C26.0878 20.72 26.9038 20.472 27.8158 19.976C28.7438 19.464 29.5438 18.8 30.2158 17.984C30.4078 17.76 30.6238 17.648 30.8638 17.648ZM24.8158 14.168C24.2238 14.168 23.7198 14.512 23.3038 15.2C22.9038 15.888 22.7038 16.72 22.7038 17.696V17.744C23.6478 17.52 24.3918 17.184 24.9358 16.736C25.4798 16.288 25.7518 15.768 25.7518 15.176C25.7518 14.872 25.6638 14.632 25.4878 14.456C25.3278 14.264 25.1038 14.168 24.8158 14.168ZM34.0457 23.648C33.2137 23.648 32.5737 23.456 32.1257 23.072C31.6937 22.688 31.4777 22.256 31.4777 21.776C31.4777 21.36 31.6297 21 31.9337 20.696C32.2377 20.392 32.6857 20.24 33.2777 20.24C33.4857 20.24 33.7257 20.264 33.9977 20.312C34.2857 20.344 34.5017 20.368 34.6457 20.384C34.6297 19.968 34.5337 19.576 34.3577 19.208C34.1977 18.84 33.9897 18.488 33.7337 18.152C33.4777 17.8 33.2377 17.496 33.0137 17.24C32.5177 18.184 32.0217 18.968 31.5257 19.592C31.0457 20.216 30.5177 20.808 29.9417 21.368C29.6537 21.656 29.3497 21.8 29.0297 21.8C28.7737 21.8 28.5657 21.712 28.4057 21.536C28.2457 21.344 28.1657 21.112 28.1657 20.84C28.1657 20.52 28.2777 20.224 28.5017 19.952L28.8137 19.568C29.6937 18.48 30.3577 17.584 30.8057 16.88C31.0777 16.416 31.3977 15.8 31.7657 15.032C32.1337 14.248 32.4937 13.44 32.8457 12.608C33.1497 11.904 33.7817 11.552 34.7417 11.552C35.1897 11.552 35.5017 11.592 35.6777 11.672C35.8537 11.752 35.9417 11.88 35.9417 12.056C35.9417 12.152 35.9097 12.304 35.8457 12.512C35.7817 12.72 35.6937 12.928 35.5817 13.136C35.2937 13.712 35.1497 14.2 35.1497 14.6C35.1497 14.84 35.2297 15.104 35.3897 15.392C35.5657 15.68 35.8297 16.04 36.1817 16.472C36.6937 17.144 37.0777 17.72 37.3337 18.2C37.6057 18.664 37.7417 19.176 37.7417 19.736C37.7417 19.896 37.7257 20.12 37.6937 20.408C38.4777 20.104 39.3977 19.296 40.4537 17.984C40.6457 17.76 40.8617 17.648 41.1017 17.648C41.3097 17.648 41.4697 17.744 41.5817 17.936C41.7097 18.128 41.7737 18.392 41.7737 18.728C41.7737 19.336 41.6217 19.832 41.3177 20.216C40.5177 21.208 39.7497 21.888 39.0137 22.256C38.2937 22.608 37.3977 22.8 36.3257 22.832C35.6857 23.376 34.9257 23.648 34.0457 23.648ZM43.7839 14.096C43.7519 14.896 43.7359 15.52 43.7359 15.968C43.7359 17.12 43.7919 18.024 43.9039 18.68C44.0319 19.32 44.2319 19.784 44.5039 20.072C44.7919 20.344 45.1839 20.48 45.6799 20.48C45.9359 20.48 46.2399 20.4 46.5919 20.24C46.9439 20.08 47.2639 19.872 47.5519 19.616C47.7279 19.456 47.9039 19.376 48.0799 19.376C48.2719 19.376 48.4239 19.488 48.5359 19.712C48.6639 19.92 48.7279 20.176 48.7279 20.48C48.7279 20.784 48.6639 21.08 48.5359 21.368C48.4239 21.656 48.2479 21.896 48.0079 22.088C47.1759 22.776 46.2319 23.12 45.1759 23.12C43.6559 23.12 42.5439 22.488 41.8399 21.224C41.1359 19.944 40.7839 18.28 40.7839 16.232C40.7839 15.528 40.8079 14.816 40.8559 14.096H39.9199C39.4399 14.096 39.1119 14.008 38.9359 13.832C38.7759 13.656 38.6959 13.376 38.6959 12.992C38.6959 12.096 39.0559 11.648 39.7759 11.648H41.1439C41.4159 9.888 41.8319 8.28 42.3919 6.824C42.9519 5.368 43.6239 4.208 44.4079 3.344C45.2079 2.48 46.0639 2.048 46.9759 2.048C47.6479 2.048 48.1759 2.344 48.5599 2.936C48.9439 3.528 49.1359 4.272 49.1359 5.168C49.1359 7.648 48.0959 9.808 46.0159 11.648H48.7039C48.9599 11.648 49.1439 11.704 49.2559 11.816C49.3679 11.928 49.4239 12.136 49.4239 12.44C49.4239 13.544 48.5199 14.096 46.7119 14.096H43.7839ZM46.3279 4.352C46.0879 4.352 45.8159 4.656 45.5119 5.264C45.2239 5.856 44.9439 6.688 44.6719 7.76C44.4159 8.816 44.1999 9.992 44.0239 11.288C44.9679 10.472 45.6719 9.56 46.1359 8.552C46.6159 7.528 46.8559 6.6 46.8559 5.768C46.8559 4.824 46.6799 4.352 46.3279 4.352ZM75.7695 7.64C75.7695 9 75.2895 10.176 74.3295 11.168C73.3695 12.144 71.9695 12.848 70.1295 13.28C71.1215 13.552 71.8735 14 72.3855 14.624C72.8975 15.232 73.1535 15.936 73.1535 16.736C73.1535 18 72.7535 19.096 71.9535 20.024C71.1695 20.952 70.0175 21.672 68.4975 22.184C66.9775 22.68 65.1455 22.928 63.0015 22.928C62.2015 22.928 61.5615 22.904 61.0815 22.856C61.0655 23.304 60.8735 23.64 60.5055 23.864C60.1375 24.088 59.6655 24.2 59.0895 24.2C58.5135 24.2 58.1135 24.072 57.8895 23.816C57.6815 23.56 57.5935 23.184 57.6255 22.688C57.7695 20.448 58.0495 18.104 58.4655 15.656C58.8815 13.192 59.4095 10.816 60.0495 8.528C60.1615 8.128 60.3855 7.848 60.7215 7.688C61.0575 7.528 61.4975 7.448 62.0415 7.448C63.0175 7.448 63.5055 7.72 63.5055 8.264C63.5055 8.488 63.4575 8.744 63.3615 9.032C62.9455 10.28 62.5295 11.976 62.1135 14.12C61.6975 16.248 61.4015 18.28 61.2255 20.216C61.9935 20.28 62.6175 20.312 63.0975 20.312C65.3375 20.312 66.9775 19.992 68.0175 19.352C69.0735 18.696 69.6015 17.864 69.6015 16.856C69.6015 16.152 69.2975 15.56 68.6895 15.08C68.0975 14.6 67.0975 14.336 65.6895 14.288C65.3695 14.272 65.1455 14.192 65.0175 14.048C64.8895 13.904 64.8255 13.672 64.8255 13.352C64.8255 12.888 64.9215 12.512 65.1135 12.224C65.3055 11.936 65.6575 11.784 66.1695 11.768C67.3055 11.736 68.3295 11.568 69.2415 11.264C70.1695 10.96 70.8975 10.536 71.4255 9.992C71.9535 9.432 72.2175 8.784 72.2175 8.048C72.2175 7.12 71.7615 6.392 70.8495 5.864C69.9375 5.32 68.5375 5.048 66.6495 5.048C64.9375 5.048 63.2815 5.272 61.6815 5.72C60.0815 6.152 58.7215 6.704 57.6015 7.376C57.0895 7.68 56.6575 7.832 56.3055 7.832C56.0175 7.832 55.7935 7.736 55.6335 7.544C55.4895 7.336 55.4175 7.08 55.4175 6.776C55.4175 6.376 55.4975 6.032 55.6575 5.744C55.8335 5.456 56.2415 5.128 56.8815 4.76C58.2255 3.992 59.8015 3.392 61.6095 2.96C63.4175 2.528 65.2655 2.312 67.1535 2.312C70.0495 2.312 72.2095 2.8 73.6335 3.776C75.0575 4.752 75.7695 6.04 75.7695 7.64ZM85.8013 17.648C86.0093 17.648 86.1693 17.744 86.2813 17.936C86.4093 18.128 86.4733 18.392 86.4733 18.728C86.4733 19.368 86.3213 19.864 86.0173 20.216C85.4253 20.936 84.5853 21.6 83.4973 22.208C82.4253 22.816 81.2733 23.12 80.0413 23.12C78.3613 23.12 77.0573 22.664 76.1293 21.752C75.2013 20.84 74.7373 19.592 74.7373 18.008C74.7373 16.904 74.9693 15.88 75.4333 14.936C75.8973 13.976 76.5373 13.216 77.3533 12.656C78.1853 12.096 79.1213 11.816 80.1613 11.816C81.0893 11.816 81.8333 12.096 82.3933 12.656C82.9533 13.2 83.2333 13.944 83.2333 14.888C83.2333 15.992 82.8333 16.944 82.0333 17.744C81.2493 18.528 79.9133 19.152 78.0253 19.616C78.4253 20.352 79.1853 20.72 80.3053 20.72C81.0253 20.72 81.8413 20.472 82.7533 19.976C83.6813 19.464 84.4813 18.8 85.1533 17.984C85.3453 17.76 85.5613 17.648 85.8013 17.648ZM79.7533 14.168C79.1613 14.168 78.6573 14.512 78.2413 15.2C77.8413 15.888 77.6413 16.72 77.6413 17.696V17.744C78.5853 17.52 79.3293 17.184 79.8733 16.736C80.4173 16.288 80.6893 15.768 80.6893 15.176C80.6893 14.872 80.6013 14.632 80.4253 14.456C80.2653 14.264 80.0413 14.168 79.7533 14.168ZM93.8608 16.28C94.3088 16.28 94.5328 16.616 94.5328 17.288C94.5328 18.552 93.5408 19.184 91.5568 19.184C91.1728 19.184 90.6208 19.112 89.9008 18.968C90.1088 19.96 90.2768 21.064 90.4048 22.28C90.5488 23.48 90.6208 24.472 90.6208 25.256C90.6208 26.984 90.3408 28.304 89.7808 29.216C89.2208 30.128 88.4848 30.584 87.5728 30.584C86.4208 30.584 85.5968 29.768 85.1008 28.136C84.6208 26.504 84.3808 24.04 84.3808 20.744C84.3808 17.672 84.7088 14.56 85.3648 11.408C86.0368 8.24 86.9488 5.624 88.1008 3.56C89.2688 1.48 90.5488 0.439999 91.9408 0.439999C92.6928 0.439999 93.2768 0.775999 93.6928 1.448C94.1248 2.12 94.3408 3.024 94.3408 4.16C94.3408 7.92 92.0928 12.016 87.5968 16.448C87.4368 18.016 87.3568 19.392 87.3568 20.576C87.3568 22.224 87.4128 23.912 87.5248 25.64C87.6368 27.384 87.8208 28.256 88.0768 28.256C88.5568 28.256 88.7968 27.424 88.7968 25.76C88.7968 24.512 88.7088 23.304 88.5328 22.136C88.3728 20.968 88.1488 19.736 87.8608 18.44C87.8448 18.232 87.9088 17.968 88.0528 17.648C88.2128 17.328 88.4048 17.048 88.6288 16.808C88.8528 16.568 89.0528 16.448 89.2288 16.448C89.5488 16.448 89.9328 16.464 90.3808 16.496C90.5248 16.512 90.6928 16.52 90.8848 16.52C91.5248 16.52 92.2368 16.464 93.0208 16.352C93.1488 16.336 93.2848 16.32 93.4288 16.304C93.5728 16.288 93.7168 16.28 93.8608 16.28ZM91.4368 2.816C91.1488 2.816 90.7888 3.304 90.3568 4.28C89.9408 5.256 89.5248 6.552 89.1088 8.168C88.6928 9.768 88.3328 11.464 88.0288 13.256C89.3088 11.8 90.2928 10.288 90.9808 8.72C91.6688 7.136 92.0208 5.656 92.0368 4.28C92.0368 3.304 91.8368 2.816 91.4368 2.816ZM104.962 15.632C105.17 15.632 105.33 15.736 105.442 15.944C105.554 16.152 105.61 16.416 105.61 16.736C105.61 17.504 105.378 17.96 104.914 18.104C103.954 18.44 102.898 18.632 101.746 18.68C101.442 20.024 100.842 21.104 99.9463 21.92C99.0503 22.72 98.0343 23.12 96.8983 23.12C95.9383 23.12 95.1143 22.888 94.4263 22.424C93.7543 21.96 93.2423 21.344 92.8903 20.576C92.5383 19.808 92.3623 18.976 92.3623 18.08C92.3623 16.864 92.5943 15.784 93.0583 14.84C93.5223 13.88 94.1623 13.136 94.9783 12.608C95.7943 12.064 96.6983 11.792 97.6903 11.792C98.9063 11.792 99.8823 12.216 100.618 13.064C101.37 13.896 101.81 14.928 101.938 16.16C102.69 16.112 103.586 15.952 104.626 15.68C104.754 15.648 104.866 15.632 104.962 15.632ZM97.0903 20.576C97.6023 20.576 98.0423 20.368 98.4103 19.952C98.7943 19.536 99.0503 18.936 99.1783 18.152C98.6823 17.816 98.2983 17.376 98.0263 16.832C97.7703 16.288 97.6423 15.712 97.6423 15.104C97.6423 14.848 97.6663 14.592 97.7143 14.336H97.5943C96.9543 14.336 96.4183 14.648 95.9863 15.272C95.5703 15.88 95.3623 16.744 95.3623 17.864C95.3623 18.744 95.5303 19.416 95.8663 19.88C96.2183 20.344 96.6263 20.576 97.0903 20.576ZM105.254 23.12C104.646 23.12 104.214 22.8 103.958 22.16C103.718 21.52 103.598 20.496 103.598 19.088C103.598 17.008 103.894 15.032 104.486 13.16C104.63 12.696 104.862 12.36 105.182 12.152C105.518 11.928 105.982 11.816 106.574 11.816C106.894 11.816 107.118 11.856 107.246 11.936C107.374 12.016 107.438 12.168 107.438 12.392C107.438 12.648 107.318 13.224 107.078 14.12C106.918 14.76 106.79 15.32 106.694 15.8C106.598 16.28 106.518 16.872 106.454 17.576C106.982 16.2 107.574 15.08 108.23 14.216C108.886 13.352 109.526 12.736 110.15 12.368C110.79 12 111.374 11.816 111.902 11.816C112.942 11.816 113.462 12.336 113.462 13.376C113.462 13.584 113.39 14.088 113.246 14.888C113.118 15.528 113.054 15.928 113.054 16.088C113.054 16.648 113.254 16.928 113.654 16.928C114.102 16.928 114.678 16.576 115.382 15.872C115.59 15.664 115.806 15.56 116.03 15.56C116.238 15.56 116.398 15.656 116.51 15.848C116.638 16.024 116.702 16.264 116.702 16.568C116.702 17.16 116.542 17.624 116.222 17.96C115.774 18.424 115.246 18.824 114.638 19.16C114.046 19.48 113.414 19.64 112.742 19.64C111.894 19.64 111.246 19.424 110.798 18.992C110.366 18.56 110.15 17.976 110.15 17.24C110.15 17 110.174 16.76 110.222 16.52C110.254 16.2 110.27 15.984 110.27 15.872C110.27 15.616 110.182 15.488 110.006 15.488C109.766 15.488 109.446 15.76 109.046 16.304C108.662 16.832 108.278 17.536 107.894 18.416C107.51 19.296 107.198 20.224 106.958 21.2C106.782 21.952 106.574 22.464 106.334 22.736C106.11 22.992 105.75 23.12 105.254 23.12ZM123.064 18.368C123.272 18.368 123.432 18.464 123.544 18.656C123.672 18.848 123.736 19.112 123.736 19.448C123.736 20.024 123.6 20.52 123.328 20.936C122.88 21.624 122.288 22.16 121.552 22.544C120.832 22.928 119.968 23.12 118.96 23.12C117.424 23.12 116.232 22.664 115.384 21.752C114.536 20.824 114.112 19.576 114.112 18.008C114.112 16.904 114.344 15.88 114.808 14.936C115.272 13.976 115.912 13.216 116.728 12.656C117.56 12.096 118.496 11.816 119.536 11.816C120.464 11.816 121.208 12.096 121.768 12.656C122.328 13.2 122.608 13.944 122.608 14.888C122.608 15.992 122.208 16.944 121.408 17.744C120.624 18.528 119.28 19.152 117.376 19.616C117.76 20.352 118.408 20.72 119.32 20.72C119.976 20.72 120.512 20.568 120.928 20.264C121.36 19.96 121.856 19.448 122.416 18.728C122.608 18.488 122.824 18.368 123.064 18.368ZM119.128 14.168C118.536 14.168 118.032 14.512 117.616 15.2C117.216 15.888 117.016 16.72 117.016 17.696V17.744C117.96 17.52 118.704 17.184 119.248 16.736C119.792 16.288 120.064 15.768 120.064 15.176C120.064 14.872 119.976 14.632 119.8 14.456C119.64 14.264 119.416 14.168 119.128 14.168Z" fill="white"/>
</svg>
